<?xml version="1.0" encoding="UTF-8" standalone="no"?>
<!-- Created with Inkscape (http://www.inkscape.org/) -->

<svg
   width="210mm"
   height="297mm"
   viewBox="0 0 210 297"
   version="1.1"
   id="svg5"
   inkscape:version="1.1.2 (b8e25be833, 2022-02-05)"
   sodipodi:docname="sketch1.svg"
   xmlns:inkscape="http://www.inkscape.org/namespaces/inkscape"
   xmlns:sodipodi="http://sodipodi.sourceforge.net/DTD/sodipodi-0.dtd"
   xmlns:xlink="http://www.w3.org/1999/xlink"
   xmlns="http://www.w3.org/2000/svg"
   xmlns:svg="http://www.w3.org/2000/svg">
  <sodipodi:namedview
     id="namedview7"
     pagecolor="#ffffff"
     bordercolor="#666666"
     borderopacity="1.0"
     inkscape:pageshadow="2"
     inkscape:pageopacity="0.0"
     inkscape:pagecheckerboard="0"
     inkscape:document-units="mm"
     showgrid="false"
     inkscape:zoom="0.76435185"
     inkscape:cx="119.05512"
     inkscape:cy="495.19079"
     inkscape:window-width="1841"
     inkscape:window-height="1051"
     inkscape:window-x="70"
     inkscape:window-y="-9"
     inkscape:window-maximized="1"
     inkscape:current-layer="layer1" />
  <defs
     id="defs2">
    <linearGradient
       inkscape:collect="always"
       id="linearGradient36983">
      <stop
         style="stop-color:#ec2720;stop-opacity:1;"
         offset="0"
         id="stop36979" />
      <stop
         style="stop-color:#ecff20;stop-opacity:0.99190283"
         offset="1"
         id="stop36981" />
    </linearGradient>
    <linearGradient
       inkscape:collect="always"
       id="linearGradient36297">
      <stop
         style="stop-color:#08661c;stop-opacity:1;"
         offset="0"
         id="stop36293" />
      <stop
         style="stop-color:#08661c;stop-opacity:0;"
         offset="1"
         id="stop36295" />
    </linearGradient>
    <linearGradient
       inkscape:collect="always"
       id="linearGradient36161">
      <stop
         style="stop-color:#08661c;stop-opacity:1;"
         offset="0"
         id="stop36157" />
      <stop
         style="stop-color:#08661c;stop-opacity:0;"
         offset="1"
         id="stop36159" />
    </linearGradient>
    <linearGradient
       inkscape:collect="always"
       id="linearGradient36089">
      <stop
         style="stop-color:#08661c;stop-opacity:1;"
         offset="0"
         id="stop36085" />
      <stop
         style="stop-color:#08661c;stop-opacity:0;"
         offset="1"
         id="stop36087" />
    </linearGradient>
    <linearGradient
       inkscape:collect="always"
       id="linearGradient36017">
      <stop
         style="stop-color:#08661c;stop-opacity:1;"
         offset="0"
         id="stop36013" />
      <stop
         style="stop-color:#08661c;stop-opacity:0;"
         offset="1"
         id="stop36015" />
    </linearGradient>
    <linearGradient
       inkscape:collect="always"
       id="linearGradient35945">
      <stop
         style="stop-color:#08661c;stop-opacity:1;"
         offset="0"
         id="stop35941" />
      <stop
         style="stop-color:#08661c;stop-opacity:0;"
         offset="1"
         id="stop35943" />
    </linearGradient>
    <linearGradient
       id="linearGradient34305"
       inkscape:swatch="solid">
      <stop
         style="stop-color:#085e1c;stop-opacity:1;"
         offset="0"
         id="stop34303" />
    </linearGradient>
    <linearGradient
       inkscape:collect="always"
       id="linearGradient18454">
      <stop
         style="stop-color:#9e3900;stop-opacity:1;"
         offset="0"
         id="stop18450" />
      <stop
         style="stop-color:#9e3900;stop-opacity:1"
         offset="1"
         id="stop18452" />
    </linearGradient>
    <rect
       x="105.97214"
       y="189.70321"
       width="550.79345"
       height="134.75469"
       id="rect6314" />
    <linearGradient
       id="linearGradient4508"
       inkscape:swatch="solid">
      <stop
         style="stop-color:#412665;stop-opacity:1;"
         offset="0"
         id="stop4506" />
    </linearGradient>
    <linearGradient
       inkscape:collect="always"
       xlink:href="#linearGradient18454"
       id="linearGradient22686"
       x1="144.70245"
       y1="251.33624"
       x2="614.07751"
       y2="251.33624"
       gradientUnits="userSpaceOnUse" />
    <linearGradient
       inkscape:collect="always"
       xlink:href="#linearGradient35945"
       id="linearGradient35947"
       x1="12.807693"
       y1="189"
       x2="132.57692"
       y2="162.69231"
       gradientUnits="userSpaceOnUse" />
    <linearGradient
       inkscape:collect="always"
       xlink:href="#linearGradient36017"
       id="linearGradient36019"
       x1="58.309685"
       y1="189.8761"
       x2="142.61539"
       y2="169.61539"
       gradientUnits="userSpaceOnUse" />
    <linearGradient
       inkscape:collect="always"
       xlink:href="#linearGradient36089"
       id="linearGradient36091"
       x1="88.934692"
       y1="186.26604"
       x2="133.26923"
       y2="174.11539"
       gradientUnits="userSpaceOnUse" />
    <linearGradient
       inkscape:collect="always"
       xlink:href="#linearGradient36161"
       id="linearGradient36163"
       x1="111.11539"
       y1="186.23077"
       x2="166.5"
       y2="157.5"
       gradientUnits="userSpaceOnUse" />
    <linearGradient
       inkscape:collect="always"
       xlink:href="#linearGradient36297"
       id="linearGradient36299"
       x1="142.96153"
       y1="169.61539"
       x2="167.19231"
       y2="161.30769"
       gradientUnits="userSpaceOnUse" />
    <linearGradient
       inkscape:collect="always"
       xlink:href="#linearGradient36297"
       id="linearGradient36365"
       x1="162.96001"
       y1="198.86507"
       x2="212.88461"
       y2="179.65384"
       gradientUnits="userSpaceOnUse" />
    <linearGradient
       inkscape:collect="always"
       xlink:href="#linearGradient36983"
       id="linearGradient36985"
       x1="8.8677085"
       y1="68.365379"
       x2="240.01691"
       y2="125.48077"
       gradientUnits="userSpaceOnUse" />
  </defs>
  <g
     inkscape:label="Layer 1"
     inkscape:groupmode="layer"
     id="layer1">
    <ellipse
       style="fill:url(#linearGradient36985);fill-opacity:1;stroke:#a1b20e;stroke-width:0.264583;stroke-opacity:1"
       id="path31"
       cx="103.67307"
       cy="68.365379"
       rx="94.673073"
       ry="55.55769" />
    <text
       xml:space="preserve"
       transform="scale(0.26458333)"
       id="text6312"
       style="font-style:normal;font-weight:normal;font-size:106.66666801px;line-height:1.25;font-family:'Gill Sans Ultra Bold';text-align:center;white-space:pre;shape-inside:url(#rect6314);fill:#23fff8;fill-opacity:1;stroke:#00c5f2;-inkscape-font-specification:'Gill Sans Ultra Bold, ';font-stretch:normal;font-variant:normal;stroke-opacity:1;stroke-width:1.00157481;stroke-miterlimit:4;stroke-dasharray:none;stroke-linecap:round"
       x="125.92715"
       y="0"><tspan
         x="144.70246"
         y="290.60708"
         id="tspan40875">Wordle</tspan></text>
    <path
       style="font-variation-settings:normal;opacity:1;mix-blend-mode:color-burn;vector-effect:none;fill:url(#linearGradient35947);fill-opacity:1;stroke:none;stroke-width:0.264583;stroke-linecap:butt;stroke-linejoin:miter;stroke-miterlimit:4;stroke-dasharray:none;stroke-dashoffset:0;stroke-opacity:1;-inkscape-stroke:none;stop-color:#000000;stop-opacity:1"
       id="path33087"
       d="m 9.1988181,155.81544 c 1.1818019,1.88515 2.0376189,3.98893 2.7840179,6.07488 1.283258,3.58629 2.181201,6.7237 3.030715,10.4738 0.482779,2.13118 0.848326,4.28723 1.272489,6.43084 1.551528,8.91094 2.396547,17.93161 2.688086,26.96792 0.01194,1.32698 0.06313,2.65763 -0.0118,3.98408 -0.0089,0.15714 -0.01576,0.31546 -0.04587,0.46994 -0.0048,0.0248 -0.08097,0.0536 -0.05576,0.0515 1.638393,-0.13811 3.274027,-0.3072 4.91104,-0.46081 -0.01215,-0.44479 -0.05082,-0.88966 -0.03646,-1.33439 0.126204,-3.90766 0.776642,-7.80852 1.371455,-11.66334 0.488222,-3.16403 1.499306,-9.19771 2.005983,-12.25138 1.04907,-6.22221 2.088441,-12.44602 3.141551,-18.66754 0.585949,-3.46163 1.151356,-6.92171 1.856473,-10.36103 2.506051,-1.04231 -3.437842,1.42543 -3.507409,1.55578 -0.617747,1.15747 0.768953,2.5097 1.097946,3.77979 1.537616,5.93601 2.676793,11.9724 3.851672,17.98684 1.624391,8.87915 2.833233,17.83367 3.544875,26.83204 0.227708,2.60711 0.294777,5.22248 0.225655,7.83756 -0.01183,0.22456 -0.258877,0.64819 -0.03545,0.67368 1.616192,0.18438 3.296965,0.25929 4.878525,-0.12117 0.333632,-0.0803 -0.10083,-0.67933 -0.129325,-1.0213 -0.04964,-0.59562 -0.08035,-1.19281 -0.104947,-1.78999 -0.135745,-3.29634 -0.08322,-3.18671 -0.0479,-6.89915 0.242837,-8.68595 1.234344,-17.35777 2.995535,-25.86831 0.347684,-1.6801 0.760963,-3.34595 1.141445,-5.01893 1.091086,-3.96284 2.158547,-7.97675 3.86072,-11.73488 0.709824,-1.56718 1.712598,-3.37291 2.823197,-4.71929 0.478523,-0.58011 1.060344,-1.06665 1.590514,-1.59997 0.570433,-0.38863 1.109768,-0.82737 1.711295,-1.16587 1.581865,-0.89018 3.478784,-1.45367 5.275797,-1.67893 0.5553,-0.0696 2.235825,-0.10774 1.676382,-0.0926 -0.972291,0.0263 -1.943476,0.0841 -2.915214,0.12609 0.512186,0.11497 1.036651,0.18476 1.536555,0.3449 1.314479,0.42109 2.657877,1.17579 3.565062,2.23644 0.716708,0.83796 0.82541,1.30546 1.253984,2.30692 0.06409,0.46364 0.176231,0.92314 0.192268,1.39091 0.04707,1.37305 -0.299736,2.81759 -0.970494,4.01776 -0.497163,0.88957 -0.79623,1.08428 -1.5054,1.77511 -0.764831,0.61515 -1.636234,1.03192 -2.574497,1.30507 -1.673317,0.48713 -5.217125,0.33025 2.778139,0.16555 -0.778111,-0.22483 -0.993937,-0.907 -1.216888,-1.60636 0,0 -4.831,0.14438 -4.831,0.14438 v 0 c 0.246401,0.82606 0.485356,1.6604 1.257553,2.14831 1.781985,0.0272 3.563816,0.0955 5.345954,0.0816 0.214569,-0.002 0.423156,-0.0742 0.630815,-0.12831 1.223981,-0.3186 2.34497,-0.89686 3.28319,-1.75093 0.712931,-0.78458 0.980895,-0.97489 1.468205,-1.95194 0.894572,-1.7936 1.104794,-3.81473 0.76903,-5.77223 -0.411268,-1.03358 -0.553868,-1.61584 -1.258017,-2.49907 -0.904785,-1.1349 -2.308712,-1.97292 -3.65356,-2.46906 -0.502097,-0.18523 -1.033306,-0.27914 -1.549958,-0.41871 -1.661904,-0.0341 -5.4497,-0.34209 -7.77268,0.0297 -1.796151,0.28747 -3.662516,0.91071 -5.212557,1.87364 -0.591449,0.36742 -1.113853,0.8358 -1.67078,1.25371 -0.509085,0.5606 -1.073385,1.07564 -1.527254,1.68181 -1.049899,1.40222 -1.927892,3.22048 -2.568035,4.82591 -1.520434,3.81313 -2.423364,7.83778 -3.441322,11.80106 -0.925097,4.3201 -1.318424,5.9388 -2.067076,10.3395 -1.160523,6.82174 -1.82101,13.71294 -2.354926,20.60825 -0.116176,1.35142 -0.242912,2.70198 -0.348523,4.05427 -0.07454,0.95438 -0.127934,1.91031 -0.191899,2.86546 -0.03025,0.59728 -0.048,1.19533 -0.09074,1.79185 -0.02529,0.35289 -0.457372,0.97305 -0.113279,1.0553 5.160315,1.23366 4.945872,1.56027 4.870728,-0.58997 -0.06726,-2.63798 -0.12002,-5.28656 -0.571915,-7.89375 -1.577708,-8.94346 -3.199191,-17.87926 -4.700077,-26.83617 -0.01363,-0.0763 -2.210798,-12.36593 -2.2694,-12.7089 -0.301739,-1.76591 -0.576945,-3.53624 -0.860205,-5.3052 -0.204158,-1.27496 0.312187,-2.91473 -0.602047,-3.82652 -4.889105,-4.87608 -4.952489,-3.57859 -5.340836,-1.4822 -0.715682,9.74416 -2.077978,19.43388 -3.903229,29.03086 -1.107252,5.7487 -2.23296,11.49319 -3.390056,17.2321 -0.277889,1.37825 -1.047769,5.05566 -1.339446,6.71387 -0.07986,0.45401 -0.129405,0.91284 -0.194108,1.36926 1.642052,0.15811 3.281866,0.3415 4.926155,0.47435 0.03147,0.003 -0.04393,-0.0494 -0.05007,-0.0804 -0.03116,-0.15699 -0.04378,-0.31716 -0.06041,-0.47635 -0.139281,-1.33288 -0.221746,-2.67153 -0.385694,-4.00202 -1.028276,-9.02821 -2.36871,-18.01879 -3.764963,-26.99636 -0.372599,-2.14989 -0.709015,-4.30638 -1.117796,-6.44969 -1.021513,-5.35597 -2.244868,-10.73796 -4.020694,-15.90255 -0.09538,-0.27739 -0.219816,-0.54391 -0.329725,-0.81587 0,0 -4.9033144,0.24886 -4.9033144,0.24886 z" />
    <path
       style="font-variation-settings:normal;opacity:1;mix-blend-mode:color-burn;vector-effect:none;fill:url(#linearGradient36019);fill-opacity:1;stroke:none;stroke-width:0.264583;stroke-linecap:butt;stroke-linejoin:miter;stroke-miterlimit:4;stroke-dasharray:none;stroke-dashoffset:0;stroke-opacity:1;-inkscape-stroke:none;stop-color:#000000;stop-opacity:1"
       id="path33089"
       d="m 52.931509,201.23914 c 3.145748,-2.39109 5.685597,-5.4339 8.297778,-8.36987 2.661817,-2.81197 5.442823,-5.64586 8.784881,-7.66131 0.422809,-0.25498 0.870693,-0.46586 1.306039,-0.69879 1.364879,-0.62982 2.833856,-0.9774 4.332983,-1.0637 0.318878,-0.0184 1.277445,-0.0204 0.958149,-0.012 -1.251797,0.0328 -2.503803,0.0568 -3.755705,0.0852 2.091568,0.34351 3.48216,1.2469 5.037802,2.62461 1.032764,1.03971 1.889707,2.23929 2.457569,3.59517 0.387836,0.92603 0.457054,1.33156 0.709009,2.29833 0.325345,1.87946 0.786823,4.00119 -7.94e-4,5.84132 -0.140531,0.32833 -0.361164,0.61623 -0.541748,0.92435 -0.311271,0.26899 -0.589848,0.58129 -0.933817,0.80698 -2.353638,1.54426 -6.164892,2.00482 -8.916276,2.36803 1.291153,0.11973 -4.332478,0.17494 -3.249927,0.11839 1.069517,-0.0559 2.146802,0.0342 3.212004,-0.0769 0.37432,-0.039 -0.749622,-0.0754 -1.120177,-0.14117 -0.909923,-0.16151 -1.014582,-0.24513 -1.857732,-0.56558 -0.261321,-0.15891 -0.541073,-0.29086 -0.783963,-0.47672 -1.51285,-1.15764 -2.22391,-3.10891 -2.826001,-4.83599 -0.588685,-2.00162 -0.827654,-4.07982 -0.910945,-6.15789 0,0 -4.820954,0.0345 -4.820954,0.0345 v 0 c 0.217149,2.11259 0.559766,4.21616 1.097105,6.27219 0.569489,1.79721 1.284775,3.85985 2.742364,5.15447 0.244163,0.21687 0.532096,0.37876 0.798145,0.56814 0.301622,0.13214 0.594323,0.28689 0.904867,0.39644 0.615307,0.21706 1.549437,0.42406 2.192594,0.44777 3.014811,0.11115 6.072598,0.23935 9.082241,-0.0948 2.784673,-0.41229 6.775754,-0.95578 9.089533,-2.62562 0.371739,-0.26829 0.660484,-0.63595 0.990727,-0.95392 0.183705,-0.34644 0.409506,-0.67365 0.551113,-1.03932 0.747681,-1.93074 0.279247,-4.12127 -0.02882,-6.08262 -0.251211,-0.9838 -0.33451,-1.43319 -0.703995,-2.38394 -0.550987,-1.41778 -1.393643,-2.67425 -2.429225,-3.7837 -0.573905,-0.5379 -0.927772,-0.90503 -1.568024,-1.36474 -1.043686,-0.74938 -2.227752,-1.27618 -3.479284,-1.55864 -2.715283,-0.0578 -5.855805,-0.46808 -8.598019,0.30556 -1.036992,0.29255 -1.211336,0.42505 -2.212496,0.89089 -0.413475,0.24918 -0.839396,0.4788 -1.240427,0.74755 -3.208136,2.14998 -5.870644,5.01963 -8.529545,7.78512 -2.708312,2.99022 -5.398362,6.09958 -8.901155,8.19209 0,0 4.864124,0.49004 4.864124,0.49004 z" />
    <path
       style="font-variation-settings:normal;opacity:1;mix-blend-mode:color-burn;vector-effect:none;fill:url(#linearGradient36091);fill-opacity:1;stroke:none;stroke-width:0.264583;stroke-linecap:butt;stroke-linejoin:miter;stroke-miterlimit:4;stroke-dasharray:none;stroke-dashoffset:0;stroke-opacity:1;-inkscape-stroke:none;stop-color:#000000;stop-opacity:1"
       id="path33091"
       d="m 84.68339,179.5965 c 1.445837,1.37026 2.754849,2.98054 3.567763,4.81583 0.266713,0.60215 0.455692,1.23581 0.683541,1.85371 1.155607,3.90789 1.633156,7.9681 1.855919,12.02448 0.0674,2.67245 -0.613346,1.82405 4.95131,1.18133 0.159088,-0.0184 -0.01955,-0.31971 -0.02724,-0.47967 -0.02872,-0.59738 -0.03818,-0.97233 -0.05841,-1.59117 -0.08182,-2.58228 -0.200255,-5.16275 -0.264046,-7.74589 -0.04923,-1.94992 0.103431,-3.91905 0.573601,-5.81658 0.280212,-1.13088 0.404376,-1.35974 0.814033,-2.43072 0.855226,-1.85398 1.870109,-2.95365 3.895949,-3.475 0.33001,-0.0849 0.67119,-0.11822 1.00679,-0.17733 3.13059,-0.0223 -2.181754,0.014 -2.744641,0.0374 -0.296432,0.0123 0.591621,0.0458 0.887031,0.0733 0.88018,0.0819 1.75819,0.17968 2.63901,0.25578 2.34174,0.20472 4.58476,0.17304 6.98745,-0.0328 0.51144,-0.0438 1.25113,-1.09639 1.518,-1.46384 0.45773,-0.59508 0.81699,-1.24689 1.10831,-1.93583 0,0 -4.87269,-0.19282 -4.87269,-0.19282 v 0 c -0.26598,0.64614 -0.59697,1.25766 -1.03158,1.8089 -0.33138,0.38781 -0.4787,0.63006 -0.92753,0.88786 -0.17586,0.10101 -0.76673,0.20844 -0.56472,0.22645 7.8106,0.6961 4.2184,-0.0268 2.48621,-0.003 -0.89287,-0.0702 -0.87516,-0.0633 -1.76272,-0.15485 -0.10924,-0.0113 -1.689,-0.18693 -1.78372,-0.18889 -1.88014,-0.0391 -3.760957,-0.0549 -5.641457,-0.0429 -0.325874,0.002 -0.64929,0.0567 -0.973934,0.085 -0.334904,0.0837 -0.677561,0.14092 -1.004715,0.25109 -2.00446,0.67498 -3.084616,1.9677 -3.877188,3.87678 -0.143629,0.40207 -0.304748,0.79832 -0.430888,1.20622 -0.720481,2.32981 -0.928235,4.7894 -0.919154,7.21642 0.05251,2.5783 0.165724,5.15694 0.129148,7.73595 -0.01217,0.39463 -0.0284,1.15008 -0.0645,1.57631 -0.01074,0.12693 -0.179226,0.36497 -0.05257,0.37851 8.126931,0.86848 5.169292,1.63438 4.779053,-0.21762 -0.06206,-0.29455 -0.09697,-0.59418 -0.14546,-0.89126 -0.535109,-4.06236 -1.013283,-8.14593 -2.017332,-12.12636 -0.195813,-0.64175 -0.347205,-1.29878 -0.587438,-1.92525 -0.716251,-1.86784 -1.996319,-3.45187 -3.244419,-4.9839 0,0 -4.886764,0.38459 -4.886764,0.38459 z" />
    <path
       style="font-variation-settings:normal;opacity:1;mix-blend-mode:color-burn;vector-effect:none;fill:url(#linearGradient36163);fill-opacity:1;stroke:none;stroke-width:0.264583;stroke-linecap:butt;stroke-linejoin:miter;stroke-miterlimit:4;stroke-dasharray:none;stroke-dashoffset:0;stroke-opacity:1;-inkscape-stroke:none;stop-color:#000000;stop-opacity:1"
       id="path33093"
       d="m 119.39821,181.0533 c -0.0239,0.12528 -0.0334,0.25421 -0.0718,0.37584 -0.13614,0.43113 -0.47569,1.10863 -0.65576,1.46866 -0.64253,1.28473 -1.34751,2.52913 -2.07119,3.76932 -1.36764,2.36837 -2.77308,4.73699 -4.54087,6.83541 -0.35016,0.41564 -0.72741,0.80766 -1.09112,1.21149 -1.76954,1.80341 -3.57393,3.57407 -5.70978,4.93929 -0.18942,0.0404 -0.76192,0.12156 -0.56825,0.12113 1.48365,-0.0433 2.96729,-0.0865 4.45095,-0.12974 -0.15911,-0.12751 -0.34097,-0.19381 -0.22642,-0.47044 0.0556,-0.1342 0.17027,-0.2427 0.28944,-0.32575 0.20291,-0.1414 0.44077,-0.22449 0.66115,-0.33674 0.31878,-0.10739 0.62784,-0.24976 0.95634,-0.32217 0.39971,-0.0881 1.62653,-0.13485 1.21782,-0.15703 -1.03746,-0.0563 -2.09915,-0.15702 -3.11649,0.054 -0.5553,0.11517 1.12647,0.13871 1.68389,0.24314 0.6774,0.12692 3.7815,0.86823 4.31201,0.99334 4.16812,1.05681 8.38643,1.92197 12.66022,2.41022 3.28879,0.0401 6.65504,0.89821 8.91764,-1.83667 0.14335,-0.17327 0.25767,-0.36863 0.38651,-0.55294 0.5001,-0.98506 0.76465,-2.05684 0.35163,-3.12749 -0.12035,-0.31197 -0.29308,-0.60112 -0.43963,-0.90168 -1.45742,-2.36816 -3.44158,-4.34457 -5.28077,-6.40866 -2.51442,-2.82188 -2.37557,-2.70461 -4.91082,-5.72768 -3.69727,-4.4846 -7.0667,-9.26152 -9.51388,-14.55367 -0.55079,-1.19111 -1.07233,-2.39992 -1.49081,-3.6437 -0.36628,-1.08865 -0.57199,-2.22488 -0.85799,-3.33732 0.003,-1.03681 -0.12557,-2.08229 0.008,-3.11042 0.36511,-2.80438 1.81643,-5.2816 3.90216,-7.14535 1.47867,-1.32129 2.35424,-1.64726 4.06685,-2.53852 1.69042,-0.67159 3.44253,-1.30234 5.27646,-1.4216 0.44578,-0.029 1.78352,-0.0192 1.33977,0.0323 -3.43923,0.39894 -4.63978,-0.29094 -2.44457,0.64424 0.84725,0.45265 1.47205,1.1303 2.08192,1.84952 0,0 4.75469,-0.33394 4.75469,-0.33394 v 0 c -0.64618,-0.76843 -1.30665,-1.51152 -2.17299,-2.04592 -2.70966,-1.38391 -0.8658,-0.61966 -6.80739,-0.83779 -2.24045,-0.0822 -4.37794,0.76701 -6.39233,1.64333 -1.68422,0.95715 -2.54415,1.31539 -3.98446,2.69478 -2.07351,1.98581 -3.48809,4.57543 -3.7857,7.46352 -0.10989,1.06636 0.0513,2.14339 0.077,3.21509 0.32836,1.12854 0.5827,2.28129 0.98507,3.38561 0.45636,1.25246 1.00968,2.46912 1.58613,3.67104 2.51849,5.25109 5.76918,10.11804 9.42555,14.63942 1.25681,1.58271 3.28812,4.15296 4.60098,5.7621 1.66805,2.04448 3.51991,3.98617 4.80015,6.31243 0.12319,0.27169 0.26591,0.53534 0.36957,0.81507 0.34727,0.93711 0.1214,1.8607 -0.3577,2.70385 -0.41802,0.55789 -0.85634,1.06307 -1.47868,1.40952 -1.56124,0.86914 -4.61293,0.54125 1.52652,0.60956 -4.34685,-0.38736 -8.64276,-1.20976 -12.86232,-2.31922 -1.38161,-0.34816 -2.75432,-0.73327 -4.14379,-1.04859 -0.54242,-0.12309 -1.082,-0.29668 -1.63774,-0.3196 -2.01402,-0.0831 -4.03258,-0.0643 -6.04721,0.003 -0.95418,0.0318 -1.46528,0.31394 -2.30999,0.65272 -0.24832,0.1803 -0.53737,0.3149 -0.74498,0.54089 -0.16041,0.17461 -0.27135,0.40026 -0.33053,0.62985 -0.0211,0.0817 -0.0174,1.02626 0.25204,1.05594 1.72282,0.18975 3.46572,0.15772 5.19844,0.11507 0.1915,-0.005 0.34311,-0.17045 0.51467,-0.25568 2.01743,-1.48328 3.78908,-3.25708 5.51019,-5.06961 0.36477,-0.41372 0.74306,-0.8159 1.09432,-1.24116 1.75949,-2.13016 3.15308,-4.5238 4.55672,-6.89348 0.75102,-1.25656 1.50185,-2.51231 2.22275,-3.78649 0.31912,-0.56406 0.5826,-0.98814 0.81571,-1.57705 0.0543,-0.13716 0.0841,-0.2828 0.1261,-0.42421 0,0 -4.93367,-0.07 -4.93367,-0.07 z" />
    <path
       style="font-variation-settings:normal;opacity:1;mix-blend-mode:color-burn;vector-effect:none;fill:url(#linearGradient36299);fill-opacity:1;stroke:none;stroke-width:0.264583;stroke-linecap:butt;stroke-linejoin:miter;stroke-miterlimit:4;stroke-dasharray:none;stroke-dashoffset:0;stroke-opacity:1;-inkscape-stroke:none;stop-color:#000000;stop-opacity:1"
       id="path33095"
       d="m 145.2055,198.19571 c 0.0465,-0.25288 0.0787,-0.50881 0.13951,-0.75864 0.0963,-0.39586 0.22147,-0.78414 0.33135,-1.17645 0.50564,-1.80522 0.72354,-2.57005 1.22221,-4.50987 0.90365,-3.51518 0.80148,-3.19768 1.63454,-6.89766 1.00137,-4.76086 1.97349,-9.54586 2.41533,-14.39773 0.2645,-2.90453 0.25264,-4.11708 0.33562,-7.04252 0.0378,-6.80813 -0.12497,-13.61488 0.0505,-20.42196 0.0308,-0.64885 0.0539,-1.29812 0.0924,-1.94655 0.0269,-0.4521 0.10402,-1.55342 0.19779,-2.10404 0.0163,-0.0957 0.18109,-0.27844 0.084,-0.2789 -5.16401,-0.0245 -5.13799,-1.3044 -4.75312,0.96876 0.50834,4.27142 0.58606,8.57875 0.67931,12.87466 0.12283,6.33105 0.0729,12.66256 0.0696,18.99415 0.0694,3.62801 -0.13261,7.25621 -0.0512,10.88397 0.046,2.04986 0.11166,2.66212 0.2519,4.67055 0.30852,2.27496 0.3991,4.64307 1.21558,6.81658 0.36242,0.96481 0.60009,1.27792 1.11409,2.13246 1.0426,1.53053 2.60486,2.35308 4.2777,3.01376 2.54,0.91527 4.91199,0.57646 7.69708,0.57794 0.40752,-0.0952 0.56447,-0.39209 0.75032,-0.72915 0,0 -4.92339,-0.28893 -4.92339,-0.28893 v 0 c -0.1863,0.22271 -0.37347,0.27569 -0.66913,0.26718 8.46868,0.0463 4.03148,0.25995 1.90534,-0.40951 -1.65085,-0.56639 -3.24685,-1.28023 -4.34661,-2.69837 -0.56171,-0.82713 -0.77481,-1.06028 -1.18115,-2.01259 -0.90227,-2.11458 -1.11021,-4.45604 -1.43495,-6.70479 -0.0678,-0.742 -0.15459,-1.48251 -0.20347,-2.226 -0.10253,-1.55941 -0.12113,-3.29759 -0.1448,-4.85866 -0.0426,-2.81127 -0.0807,-5.62298 -0.0645,-8.43464 -0.009,-6.33302 -0.062,-12.66585 -0.0561,-18.99893 -0.009,-4.30141 0.0271,-8.60416 -0.0922,-12.90404 0.0415,-2.38575 0.27855,-1.08553 -4.95281,-0.96949 -0.1009,0.002 0.0341,0.1992 0.0426,0.29976 0.0455,0.53618 0.0916,1.69603 0.1067,2.11467 0.0235,0.65003 0.0407,1.30028 0.0611,1.95041 0.18352,6.80146 0.39462,13.60425 0.21397,20.40902 -0.10532,3.09079 -0.0906,3.94399 -0.36736,7.00935 -0.43606,4.82961 -1.22863,9.62708 -2.3284,14.34892 -0.81029,3.16361 -0.93316,3.84693 -1.89782,6.866 -0.6162,1.9285 -1.38794,3.78717 -2.06,5.69354 -0.0928,0.26317 -0.17092,0.53126 -0.25638,0.79689 0,0 4.89472,0.0808 4.89472,0.0808 z" />
    <path
       style="font-variation-settings:normal;opacity:1;mix-blend-mode:color-burn;vector-effect:none;fill:url(#linearGradient36365);fill-opacity:1;stroke:none;stroke-width:0.264583;stroke-linecap:butt;stroke-linejoin:miter;stroke-miterlimit:4;stroke-dasharray:none;stroke-dashoffset:0;stroke-opacity:1;-inkscape-stroke:none;stop-color:#000000;stop-opacity:1"
       id="path33097"
       d="m 165.9392,184.95432 c 0.16208,-0.0557 0.32037,-0.12399 0.48624,-0.16716 0.28161,-0.0733 0.56632,-0.13699 0.85387,-0.18163 0.40723,-0.0632 1.64028,-0.14327 1.22818,-0.14159 -0.98717,0.004 -2.15541,-0.42643 -2.95781,0.14862 -0.53597,0.38411 1.27785,0.34974 1.87641,0.62637 0.71525,0.33056 1.36323,0.79058 2.04484,1.18587 2.30348,1.64824 4.68099,3.19974 7.22737,4.45068 1.29827,0.63779 3.14276,1.44076 4.58816,1.77408 0.58767,0.13553 1.19769,0.1429 1.79654,0.21434 1.99403,-0.11309 4.00858,-0.0323 5.98208,-0.33929 0.45608,-0.0709 0.8296,-0.43868 1.15066,-0.77029 1.15094,-1.18876 1.27425,-2.9607 1.12976,-4.50454 -0.0569,-0.60762 -0.20882,-1.20256 -0.31323,-1.80384 -0.19739,-0.55946 -0.33858,-1.14206 -0.59217,-1.67839 -0.74496,-1.57557 -1.9667,-2.86554 -3.54811,-3.61693 -1.41867,-0.67407 -2.07829,-0.64718 -3.6243,-0.87079 -2.15678,0.0155 -4.31625,-0.0623 -6.47033,0.0466 -0.69616,0.0352 -1.37854,0.21838 -2.05551,0.38451 -1.73902,0.42675 -3.93208,1.25191 -5.31941,2.42392 -0.50255,0.42456 -0.89157,0.96763 -1.33735,1.45145 -0.36195,0.62285 -0.77168,1.22029 -1.08585,1.86856 -1.36108,2.80848 -1.94056,6.08072 -1.50962,9.18094 0.10964,0.78875 0.3531,1.55304 0.52965,2.32956 0.70935,2.02841 1.79192,3.88932 3.44489,5.29835 0.81619,0.69574 2.09426,1.43046 3.10292,1.81685 0.50462,0.19331 1.04019,0.2933 1.56028,0.43995 2.97039,0.30537 6.06134,0.53263 8.95662,-0.30656 1.39096,-0.40316 2.63857,-1.06831 3.90369,-1.75423 1.64035,-0.96464 3.32899,-1.85193 4.88686,-2.95062 1.06187,-0.74888 1.45078,-1.09925 2.46941,-1.93354 1.18597,-1.00623 2.38588,-1.99595 3.64331,-2.91227 0.71627,-0.52197 1.25512,-0.91845 2.0497,-1.30242 0.30853,-0.1491 0.63674,-0.25348 0.95512,-0.38021 0.59663,-0.17407 0.98579,-0.3301 1.60357,-0.3586 0.21431,-0.01 0.42799,0.0306 0.64199,0.0459 0,0 -4.76412,-0.75367 -4.76412,-0.75367 v 0 c -0.75641,0.0584 -1.47485,0.19182 -2.17043,0.52036 -0.30984,0.14741 -0.62922,0.27624 -0.92952,0.44221 -0.77673,0.42928 -1.27404,0.82064 -1.98047,1.36496 -1.22439,0.94341 -2.40361,1.94224 -3.59573,2.92556 -1.11199,0.87099 -1.37042,1.10496 -2.5185,1.88474 -1.56857,1.06537 -3.23465,1.97479 -4.88253,2.9085 -1.25754,0.65289 -2.49936,1.27677 -3.88248,1.62769 -0.4618,0.11717 -1.86731,0.16442 -1.40318,0.272 0.99968,0.23171 2.05091,0.0774 3.07638,0.11583 0.51084,0.0191 -1.02166,-0.0387 -1.5325,-0.058 -0.52611,-0.11817 -1.06603,-0.18631 -1.57834,-0.35451 -2.41372,-0.79244 -4.49584,-2.46678 -5.76696,-4.67066 -0.3704,-0.6422 -0.60983,-1.35152 -0.91475,-2.02728 -0.17767,-0.75116 -0.42282,-1.4895 -0.53301,-2.25349 -0.43378,-3.00759 0.15593,-6.22844 1.56563,-8.91483 0.32483,-0.619 0.75248,-1.17832 1.12872,-1.76749 0.45106,-0.4468 0.85527,-0.9465 1.3532,-1.3404 1.43545,-1.13556 3.46879,-1.87169 5.23482,-2.25787 0.67793,-0.14824 2.49031,0.21993 2.05679,-0.32192 -0.49592,-0.61985 -1.58669,-0.0547 -2.38004,-0.0821 1.4953,0.15751 2.15419,0.11286 3.54599,0.69337 1.54956,0.64632 2.78336,1.80966 3.54149,3.30523 0.25719,0.50739 0.40155,1.06448 0.60233,1.59671 0.27311,1.61042 0.62228,3.17473 -0.14662,4.7351 -0.18905,0.38364 -0.45071,0.74197 -0.77051,1.02596 -0.31033,0.27559 -1.45653,0.4417 -1.08085,0.61811 0.91757,0.43089 2.0178,0.19711 3.02671,0.29567 -0.63318,-0.0356 -1.27534,0.005 -1.89953,-0.10682 -1.49199,-0.26799 -3.38529,-1.04234 -4.72308,-1.67389 -2.53132,-1.195 -4.88933,-2.71395 -7.09125,-4.43697 -0.78926,-0.51746 -2.66732,-1.91699 -3.75634,-2.04077 -2.76944,-0.31477 -6.23143,-0.56391 -9.01954,0.47151 0,0 4.88979,0.5436 4.88979,0.5436 z" />
  </g>
</svg>
